:FULLY-SPECIFIED
:FORCE-ALL-JOINTS-BE-3DOF
:DEGREES
645
root 5.58836 16.4144 -2.73052 15.628 11.2358 -0.88501
lfemur -16.3013 22.4756 -27.0213
ltibia 35.6997 0 0
lfoot -36.0299 12.2709 0
ltoes 22.2119 0 0
rfemur -58.4486 -27.1074 31.7429
rtibia 66.599 0 0
rfoot -4.69996 -2.77468 0
rtoes 1.23539 0 0
lowerback -0.740905 -3.84228 -5.10264
upperback -2.00211 -5.13436 0.320503
thorax -1.17248 -2.49942 3.16907
lowerneck -9.85867 -7.36507 -0.17165
upperneck 5.86418 -10.3527 6.34863
head 3.91085 -4.83901 1.4222
lclavicle -3.32458e-14 -1.31051e-14 0
lhumerus -40.3268 -67.609 121.912
lradius 72.54 0 0
lwrist 23.9579 0 0
lhand -6.18878 2.55702 0
lfingers 7.12502 0 0
lthumb 19.6499 31.5711 0
rclavicle -3.32458e-14 -1.31051e-14 0
rhumerus -32.1049 -2.47333 -73.07
rradius 69.3896 0 0
rwrist -23.5068 0 0
rhand -29.5734 -43.488 0
rfingers 7.12502 0 0
rthumb -2.90546 -793.447 0
646
root 5.57271 16.3803 -2.6619 16.1345 9.95988 -0.589958
lfemur -16.5603 22.9929 -27.4684
ltibia 35.9904 0 0
lfoot -36.285 12.2779 0
ltoes 21.776 0 0
rfemur -59.447 -27.85 32.8147
rtibia 66.9247 0 0
rfoot -5.55778 -3.04928 0
rtoes 1.64793 0 0
lowerback -0.705662 -3.88724 -5.28608
upperback -1.95666 -5.19764 0.149269
thorax -1.13973 -2.53119 3.09455
lowerneck -9.8205 -7.34998 -0.26619
upperneck 5.21765 -10.3059 6.59308
head 3.73945 -4.82651 1.53845
lclavicle -3.4357e-14 -1.18923e-14 0
lhumerus -41.3175 -68.435 123.111
lradius 72.6837 0 0
lwrist 24.193 0 0
lhand -5.89376 2.83671 0
lfingers 7.12502 0 0
lthumb 19.9336 31.8237 0
rclavicle -3.4357e-14 -1.18923e-14 0
rhumerus -34.3527 -3.21468 -73.8822
rradius 67.2586 0 0
rwrist -21.7991 0 0
rhand -29.5268 -44.5897 0
rfingers 7.12502 0 0
rthumb -2.86044 -794.55 0
647
root 5.55855 16.3495 -2.59983 16.5927 8.80589 -0.323106
lfemur -16.7945 23.4607 -27.8727
ltibia 36.2533 0 0
lfoot -36.5158 12.2842 0
ltoes 21.3817 0 0
rfemur -60.35 -28.5216 33.784
rtibia 67.2193 0 0
rfoot -6.33362 -3.29763 0
rtoes 2.02104 0 0
lowerback -0.673787 -3.92791 -5.45198
upperback -1.91556 -5.25486 -0.00559872
thorax -1.11012 -2.55993 3.02715
lowerneck -9.78598 -7.33633 -0.351694
upperneck 4.63291 -10.2635 6.81417
head 3.58443 -4.81521 1.64359
lclavicle -3.5362e-14 -1.07955e-14 0
lhumerus -42.2135 -69.1821 124.196
lradius 72.8136 0 0
lwrist 24.4058 0 0
lhand -5.62693 3.08966 0
lfingers 7.12502 0 0
lthumb 20.1903 32.0522 0
rclavicle -3.5362e-14 -1.07955e-14 0
rhumerus -36.3857 -3.88518 -74.6168
rradius 65.3313 0 0
rwrist -20.2546 0 0
rhand -29.4846 -45.5861 0
rfingers 7.12502 0 0
rthumb -2.81972 -795.547 0
648
root 5.54621 16.3227 -2.54578 16.9917 7.80094 -0.0907199
lfemur -16.9984 23.8681 -28.2248
ltibia 36.4823 0 0
lfoot -36.7167 12.2897 0
ltoes 21.0384 0 0
rfemur -61.1364 -29.1065 34.6281
rtibia 67.4759 0 0
rfoot -7.00925 -3.5139 0
rtoes 2.34596 0 0
lowerback -0.64603 -3.96333 -5.59646
upperback -1.87976 -5.3047 -0.140464
thorax -1.08432 -2.58495 2.96845
lowerneck -9.75592 -7.32444 -0.426155
upperneck 4.1237 -10.2266 7.00671
head 3.44944 -4.80536 1.73515
lclavicle -3.62372e-14 -9.84029e-15 0
lhumerus -42.9937 -69.8327 125.141
lradius 72.9268 0 0
lwrist 24.591 0 0
lhand -5.39457 3.30994 0
lfingers 7.12502 0 0
lthumb 20.4138 32.2511 0
rclavicle -3.62372e-14 -9.84029e-15 0
rhumerus -38.1561 -4.46908 -75.2565
rradius 63.653 0 0
rwrist -18.9095 0 0
rhand -29.4479 -46.4539 0
rfingers 7.12502 0 0
rthumb -2.78426 -796.415 0
649
root 5.53605 16.3005 -2.5012 17.3207 6.97214 0.100933
lfemur -17.1666 24.2041 -28.5152
ltibia 36.6711 0 0
lfoot -36.8824 12.2943 0
ltoes 20.7553 0 0
rfemur -61.7849 -29.5889 35.3242
rtibia 67.6874 0 0
rfoot -7.56646 -3.69227 0
rtoes 2.61392 0 0
lowerback -0.623137 -3.99254 -5.71561
upperback -1.85024 -5.3458 -0.25169
thorax -1.06305 -2.60559 2.92004
lowerneck -9.73113 -7.31463 -0.487565
upperneck 3.70374 -10.1962 7.16549
head 3.3381 -4.79725 1.81066
lclavicle -3.6959e-14 -9.05253e-15 0
lhumerus -43.6372 -70.3692 125.92
lradius 73.0201 0 0
lwrist 24.7438 0 0
lhand -5.20293 3.49162 0
lfingers 7.12502 0 0
lthumb 20.5981 32.4152 0
rclavicle -3.6959e-14 -9.05253e-15 0
rhumerus -39.6162 -4.95063 -75.7841
rradius 62.2688 0 0
rwrist -17.8003 0 0
rhand -29.4176 -47.1695 0
rfingers 7.12502 0 0
rthumb -2.75502 -797.131 0
650
root 5.52837 16.2838 -2.46756 17.5691 6.34659 0.245587
lfemur -17.2935 24.4576 -28.7344
ltibia 36.8137 0 0
lfoot -37.0074 12.2977 0
ltoes 20.5416 0 0
rfemur -62.2744 -29.9529 35.8496
rtibia 67.8471 0 0
rfoot -7.98702 -3.82689 0
rtoes 2.81617 0 0
lowerback -0.605859 -4.01459 -5.80555
upperback -1.82795 -5.37682 -0.33564
thorax -1.047 -2.62117 2.88351
lowerneck -9.71241 -7.30723 -0.533915
upperneck 3.38677 -10.1733 7.28534
head 3.25407 -4.79112 1.86765
lclavicle -3.75038e-14 -8.45796e-15 0
lhumerus -44.1229 -70.7742 126.508
lradius 73.0905 0 0
lwrist 24.8591 0 0
lhand -5.05829 3.62874 0
lfingers 7.12502 0 0
lthumb 20.7373 32.5391 0
rclavicle -3.75038e-14 -8.45796e-15 0
rhumerus -40.7183 -5.31409 -76.1823
rradius 61.2241 0 0
rwrist -16.963 0 0
rhand -29.3948 -47.7096 0
rfingers 7.12502 0 0
rthumb -2.73295 -797.672 0
651
root 5.52352 16.2733 -2.4463 17.726 5.95139 0.336975
lfemur -17.3737 24.6179 -28.8728
ltibia 36.9037 0 0
lfoot -37.0865 12.2998 0
ltoes 20.4066 0 0
rfemur -62.5836 -30.1829 36.1816
rtibia 67.948 0 0
rfoot -8.25272 -3.91194 0
rtoes 2.94395 0 0
lowerback -0.594943 -4.02852 -5.86237
upperback -1.81388 -5.39642 -0.388677
thorax -1.03686 -2.63101 2.86043
lowerneck -9.70059 -7.30256 -0.563197
upperneck 3.18651 -10.1588 7.36106
head 3.20099 -4.78725 1.90366
lclavicle -3.78479e-14 -8.08233e-15 0
lhumerus -44.4297 -71.03 126.88
lradius 73.135 0 0
lwrist 24.9319 0 0
lhand -4.96691 3.71536 0
lfingers 7.12502 0 0
lthumb 20.8252 32.6173 0
rclavicle -3.78479e-14 -8.08233e-15 0
rhumerus -41.4145 -5.54371 -76.4339
rradius 60.5641 0 0
rwrist -16.4341 0 0
rhand -29.3803 -48.0509 0
rfingers 7.12502 0 0
rthumb -2.719 -798.013 0
652
root 5.52183 16.2696 -2.43889 17.7807 5.81363 0.36883
lfemur -17.4017 24.6737 -28.9211
ltibia 36.9351 0 0
lfoot -37.114 12.3006 0
ltoes 20.3595 0 0
rfemur -62.6914 -30.2631 36.2973
rtibia 67.9832 0 0
rfoot -8.34533 -3.94159 0
rtoes 2.98849 0 0
lowerback -0.591138 -4.03337 -5.88217
upperback -1.80897 -5.40325 -0.407164
thorax -1.03332 -2.63444 2.85238
lowerneck -9.69647 -7.30093 -0.573404
upperneck 3.11671 -10.1537 7.38745
head 3.18248 -4.7859 1.91621
lclavicle -3.79679e-14 -7.95139e-15 0
lhumerus -44.5367 -71.1192 127.009
lradius 73.1505 0 0
lwrist 24.9573 0 0
lhand -4.93506 3.74556 0
lfingers 7.12502 0 0
lthumb 20.8558 32.6446 0
rclavicle -3.79679e-14 -7.95139e-15 0
rhumerus -41.6572 -5.62375 -76.5216
rradius 60.334 0 0
rwrist -16.2497 0 0
rhand -29.3753 -48.1698 0
rfingers 7.12502 0 0
rthumb -2.71414 -798.132 0
653
root 5.52109 16.2671 -2.42182 17.7759 5.67743 0.371016
lfemur -17.4698 24.6955 -28.8726
ltibia 37.2157 0 0
lfoot -36.8483 12.195 0
ltoes 20.2308 0 0
rfemur -62.5867 -30.1779 36.2551
rtibia 67.9782 0 0
rfoot -8.44702 -3.96645 0
rtoes 2.98384 0 0
lowerback -0.593322 -4.04962 -5.84734
upperback -1.81051 -5.42479 -0.397392
thorax -1.03528 -2.64559 2.84304
lowerneck -9.70007 -7.28161 -0.567207
upperneck 3.10659 -10.1264 7.35592
head 3.17693 -4.77353 1.90661
lclavicle -3.7617e-14 -7.94353e-15 0
lhumerus -44.2767 -71.1162 126.728
lradius 73.2364 0 0
lwrist 24.9768 0 0
lhand -4.98077 3.71992 0
lfingers 7.12502 0 0
lthumb 20.8118 32.6229 0
rclavicle -3.7617e-14 -7.94353e-15 0
rhumerus -41.7183 -5.67081 -76.3519
rradius 60.3724 0 0
rwrist -16.2752 0 0
rhand -29.3631 -48.171 0
rfingers 7.12502 0 0
rthumb -2.70232 -798.133 0
654
root 5.51896 16.2601 -2.37285 17.762 5.2867 0.377289
lfemur -17.6653 24.7582 -28.7334
ltibia 38.0207 0 0
lfoot -36.0862 11.892 0
ltoes 19.8615 0 0
rfemur -62.2865 -29.9334 36.1339
rtibia 67.964 0 0
rfoot -8.73874 -4.03778 0
rtoes 2.97052 0 0
lowerback -0.599586 -4.09625 -5.74743
upperback -1.81493 -5.48659 -0.369356
thorax -1.0409 -2.67759 2.81624
lowerneck -9.71041 -7.22618 -0.549427
upperneck 3.07756 -10.0479 7.26547
head 3.16102 -4.73806 1.87905
lclavicle -3.66103e-14 -7.921e-15 0
lhumerus -43.5307 -71.1077 125.923
lradius 73.483 0 0
lwrist 25.0326 0 0
lhand -5.11192 3.64635 0
lfingers 7.12502 0 0
lthumb 20.6856 32.5606 0
rclavicle -3.66103e-14 -7.921e-15 0
rhumerus -41.8937 -5.8058 -75.865
rradius 60.4826 0 0
rwrist -16.3484 0 0
rhand -29.328 -48.1744 0
rfingers 7.12502 0 0
rthumb -2.66843 -798.137 0
